<?xml version="1.0" encoding="iso-8859-1"?>
<!-- Generator: Adobe Illustrator 18.0.0, SVG Export Plug-In . SVG Version: 6.00 Build 0)  -->
<!DOCTYPE svg PUBLIC "-//W3C//DTD SVG 1.1//EN" "http://www.w3.org/Graphics/SVG/1.1/DTD/svg11.dtd">
<svg version="1.1" id="Capa_1" xmlns="http://www.w3.org/2000/svg" xmlns:xlink="http://www.w3.org/1999/xlink" x="0px" y="0px"
	 viewBox="0 0 446 446" style="enable-background:new 0 0 446 446;" xml:space="preserve">
<path d="M384.396,278.457C424.162,235.118,446,178.482,446,118.359c0-25.254-23.798-48.587-67.01-65.702
	C337.244,36.122,281.846,27.016,223,27.016c-58.845,0-114.244,9.106-155.99,25.641C23.798,69.772,0,93.105,0,118.359
	c0,60.123,21.839,116.759,61.604,160.097c-27.67,15.18-42.244,33.603-42.244,53.537c0,24.057,21.76,46.288,61.271,62.597
	c38.109,15.73,88.67,24.394,142.369,24.394s104.26-8.663,142.37-24.394c39.511-16.309,61.271-38.54,61.271-62.597
	C426.64,312.059,412.065,293.636,384.396,278.457z M345.359,325.603c0,17.628-50.251,37.27-122.36,37.27
	c-72.108,0-122.36-19.642-122.36-37.27c0-3.222,1.698-6.526,5.049-9.852c34.895,22.54,75.206,34.609,117.311,34.609
	c42.105,0,82.416-12.069,117.31-34.609C343.662,319.077,345.359,322.381,345.359,325.603z M337.488,305.645
	c-33.886,22.599-73.294,34.715-114.488,34.715c-40.727,0-79.709-11.843-113.335-33.952c-0.386-0.254-1.319-0.902-2.077-1.39
	c-12.538-8.458-24.318-18.345-35.133-29.607c-33.388-34.767-54.326-79.046-60.516-126.979c11.107,13.434,29.75,25.6,55.07,35.628
	c41.747,16.534,97.145,25.64,155.99,25.64c58.846,0,114.244-9.106,155.99-25.64c25.319-10.028,43.961-22.193,55.068-35.627
	c-6.19,47.932-27.127,92.211-60.514,126.977c-10.417,10.847-21.729,20.419-33.751,28.666
	C339.335,304.393,338.306,305.069,337.488,305.645z M95.179,123.924c11.338-5.573,26.525-8.643,42.762-8.643
	s31.423,3.069,42.762,8.643c10.062,4.945,15.832,11.366,15.832,17.615s-5.771,12.67-15.832,17.616
	c-11.338,5.573-26.525,8.643-42.762,8.643s-31.423-3.069-42.762-8.643c-10.062-4.945-15.832-11.366-15.832-17.616
	S85.117,128.869,95.179,123.924z M284.61,152.882c1.061,2.452,1.102,5.169,0.117,7.652c-0.984,2.483-2.876,4.434-5.328,5.494
	c-1.267,0.547-2.599,0.825-3.96,0.825c-3.996,0-7.602-2.369-9.187-6.036c-1.47-3.402-6.926-10.457-12.563-12.407
	c-5.211-1.802-7.984-7.508-6.183-12.719c0.117-0.339,0.254-0.676,0.403-0.996c1.636-3.487,5.187-5.74,9.046-5.74
	c1.107,0,2.207,0.186,3.27,0.554C274.003,134.271,282.499,147.995,284.61,152.882z M242.071,124.99
	c-2.586,2.655-7.033,10.387-6.689,16.339c0.317,5.505-3.902,10.243-9.408,10.56c-0.36,0.021-0.72,0.023-1.073,0.006
	c-5.112-0.246-9.189-4.292-9.485-9.413c-0.84-14.554,8.615-27.635,12.33-31.448c1.898-1.949,4.442-3.023,7.164-3.023
	c2.621,0,5.099,1.008,6.977,2.837C245.836,114.697,245.919,121.04,242.071,124.99z M219.113,182.894
	c0.822-2.376,1.917-4.583,3.17-6.64c0.22-0.328,0.428-0.66,0.626-0.998c6.058-9.281,15.472-15.059,19.377-16.747
	c1.266-0.547,2.599-0.825,3.96-0.825c3.996,0,7.602,2.369,9.187,6.037c1.061,2.452,1.102,5.17,0.117,7.653s-2.877,4.434-5.328,5.494
	c-3.402,1.47-10.458,6.926-12.407,12.563c-1.393,4.029-5.19,6.736-9.45,6.736c-1.107,0-2.207-0.186-3.269-0.553
	c-0.34-0.118-0.677-0.254-0.996-0.404C219.466,193.035,217.436,187.741,219.113,182.894z M297.528,159.746
	c0.106-3.705-1.854-12.406-6.138-16.555c-3.96-3.837-4.061-10.181-0.229-14.137c0.255-0.263,0.521-0.511,0.792-0.736
	c1.785-1.49,4.057-2.31,6.396-2.31c2.61,0,5.081,1,6.956,2.818c10.47,10.143,12.366,26.172,12.213,31.493
	c-0.156,5.447-4.543,9.713-9.987,9.713l-0.295-0.004c-2.67-0.077-5.15-1.188-6.984-3.13
	C298.419,164.956,297.451,162.416,297.528,159.746z M356.416,149.619c-0.134,0.333-0.285,0.659-0.453,0.972
	c-1.736,3.261-5.117,5.287-8.822,5.287c-1.279,0-2.537-0.246-3.739-0.731c-13.518-5.457-21.307-19.595-23.167-24.583
	c-0.935-2.502-0.838-5.218,0.271-7.647c1.108-2.43,3.098-4.283,5.601-5.216c1.13-0.422,2.306-0.635,3.494-0.635
	c4.152,0,7.919,2.615,9.371,6.507c1.295,3.473,6.385,10.796,11.916,13.029C356.001,138.665,358.481,144.504,356.416,149.619z
	 M197.6,110.716c0.359,0.02,0.704,0.059,1.087,0.125c5.05,0.811,8.649,5.283,8.371,10.4c-0.224,4.08-1.219,7.886-2.575,11.304
	c-2.864-6.142-8.622-11.614-16.489-16.019C189.664,112.896,193.416,110.488,197.6,110.716z M198.856,158.449
	c2.878-2.947,7.284-4.067,11.025-2.342c0.98,0.452,1.897,1.067,2.706,1.841c0.262,0.25,0.495,0.497,0.726,0.774
	c2.475,2.925,3.043,7.072,1.432,10.603c-0.354,0.792-0.826,1.54-1.423,2.242c-0.14,0.167-0.286,0.334-0.442,0.497
	c-10.091,10.535-26.097,12.527-31.424,12.401c-5.512-0.127-9.893-4.715-9.767-10.227c0.008-0.344,0.038-0.683,0.08-1.019
	C183.351,169.816,192.761,164.69,198.856,158.449z M301.916,179.309c-0.015-0.035-0.028-0.071-0.043-0.106
	c0.035,0.01,0.071,0.02,0.106,0.03C301.957,179.258,301.938,179.284,301.916,179.309z M55.87,165.844
	c1.989-1.785,4.557-2.694,7.218-2.544c2.665,0.145,5.115,1.321,6.951,3.368c0.193,0.209,0.401,0.467,0.627,0.773
	c1.565,2.167,2.182,4.906,1.724,7.562c-0.1,0.101-1.238-0.056-1.699-0.238c-5.997-2.375-11.595-4.878-16.775-7.489
	C54.619,166.844,55.281,166.372,55.87,165.844z M97.684,171.07c5.282,1.995,11.141,3.598,17.447,4.738
	c0.237,0.641,0.408,1.311,0.513,2.003c0.567,3.802-1.065,7.5-4.132,9.645c-10.107-2.425-19.752-5.192-28.837-8.289
	C88.031,174.86,93.828,172.378,97.684,171.07z M130.822,188.062c3.702,0.094,12.379-1.931,16.521-6.232
	c1.847-1.931,4.333-3.025,7.001-3.083c2.647-0.047,5.198,0.929,7.145,2.793c0.26,0.247,0.493,0.494,0.724,0.772
	c3.303,3.903,3.116,9.644-0.425,13.344c-0.17,0.177-0.347,0.345-0.521,0.517c-12.774-1.5-25.137-3.47-36.962-5.884
	C126.102,188.837,128.392,188.001,130.822,188.062z M194.55,194.833c1.847-1.928,4.335-3.02,7.006-3.077
	c2.69-0.048,5.206,0.93,7.154,2.797c0.258,0.245,0.49,0.49,0.721,0.768c1.054,1.247,1.756,2.709,2.099,4.259
	c-7.697-0.158-15.316-0.479-22.836-0.95C190.945,197.66,193.052,196.399,194.55,194.833z M250.26,199.03
	c-0.308-2.694,0.463-5.462,2.254-7.596c9.379-11.14,25.244-14.161,30.561-14.385c2.672-0.102,5.226,0.827,7.191,2.636
	c1.965,1.809,3.107,4.275,3.217,6.941c0.153,3.774-1.835,7.266-5.084,9.101C276.042,197.274,263.29,198.385,250.26,199.03z
	 M306.958,193.022c-0.209-3.972,1.977-7.867,5.805-9.623c3.371-1.545,10.308-7.157,12.128-12.838
	c0.815-2.543,2.573-4.615,4.948-5.835c2.376-1.221,5.086-1.441,7.662-0.612c0.322,0.101,0.644,0.223,0.977,0.373
	c4.677,2.068,7.021,7.313,5.449,12.205c-1.053,3.292-2.702,6.531-4.911,9.647C328.799,188.93,318.079,191.163,306.958,193.022z
	 M361.108,179.906c-3.723-1.678-6.145-5.566-5.888-9.735c0.34-5.504,5.107-9.7,10.588-9.369c3.691,0.232,12.45-1.418,16.767-5.574
	c1.921-1.856,4.459-2.843,7.117-2.806c2.67,0.047,5.164,1.132,7.037,3.07c0.248,0.255,0.475,0.515,0.692,0.8
	c1.557,1.992,2.263,4.517,2.041,7.021c-7.119,4.057-15.185,7.898-24.154,11.45C370.744,176.572,366,178.283,361.108,179.906z
	 M412.083,132.043c0.352,1.776,0.218,3.596-0.419,5.336c-1.892,5.18-7.638,7.859-12.814,5.97c-3.479-1.274-12.352-2.167-17.65,0.591
	c-4.893,2.548-10.945,0.642-13.494-4.244c-0.159-0.306-0.305-0.627-0.441-0.981c-1.872-4.765,0.147-10.146,4.695-12.516
	c9.093-4.733,19.296-4.381,25.058-3.63C402.558,125.577,407.595,128.741,412.083,132.043z M364.952,116.036
	c-2.004,5.14-7.814,7.688-12.904,5.706c-0.372-0.149-0.724-0.308-1.011-0.454c-1.383-0.719-2.582-1.767-3.479-3
	c-0.335-0.684-0.707-1.344-1.114-1.978c-1.033-2.408-1.083-5.073-0.123-7.537c0.669-1.725,1.532-3.424,2.538-5.088
	c7.05,2.003,13.79,4.17,20.173,6.49C367.285,111.942,365.767,113.949,364.952,116.036z M330.104,105.707
	c-3.695,0.146-12.233,2.699-16.101,7.278c-1.717,2.042-4.129,3.293-6.791,3.522c-2.654,0.229-5.251-0.591-7.313-2.328
	c-0.281-0.234-0.508-0.445-0.693-0.646c-0.023-0.026-0.048-0.051-0.071-0.076c-3.548-3.69-3.733-9.426-0.424-13.352
	c1.856-2.214,4.101-4.219,6.651-6.006c11.463,1.882,22.466,4.146,32.887,6.753C336.558,103.655,333.534,105.566,330.104,105.707z
	 M288.931,96.725c-2.243-1.866-4.913-3.285-7.93-4.036c-0.982-0.243-2.351-1.197-3.645-2.324c5.079,0.527,10.094,1.127,15.038,1.796
	C291.936,92.657,289.534,95.662,288.931,96.725z M263.496,89.119c0.571,0.609,1.071,1.284,1.476,2.032
	c1.764,3.262,7.825,9.81,13.621,11.244c5.352,1.332,8.628,6.767,7.301,12.128c-0.079,0.322-0.183,0.662-0.312,1.021
	c-1.749,4.805-6.825,7.499-11.806,6.267c-14.151-3.517-23.835-16.425-26.375-21.107c-2.315-4.255-1.224-9.461,2.407-12.45
	C254.409,88.484,258.972,88.774,263.496,89.119z M220.622,103.141c-2.343,1.288-5.043,1.586-7.609,0.837
	c-2.561-0.747-4.676-2.446-5.96-4.792c-2.053-3.738-1.49-8.302,1.245-11.399c4.871-0.133,9.773-0.204,14.703-0.204
	c4.588,0,9.151,0.061,13.688,0.176C231.581,95.629,224.391,101.072,220.622,103.141z M190.503,88.571
	c0.882,2.229,0.948,4.725,0.121,7.033c-0.903,2.517-2.732,4.532-5.149,5.674c-2.414,1.142-5.125,1.272-7.643,0.367
	c-3.488-1.247-12.366-2.082-17.649,0.698c-2.361,1.249-5.066,1.501-7.619,0.712c-2.55-0.788-4.638-2.521-5.928-4.969
	c-0.133-0.241-0.269-0.533-0.414-0.89c-0.494-1.235-0.719-2.553-0.692-3.871C159.921,91.123,174.991,89.515,190.503,88.571z
	 M131.632,95.672c-0.641,2.721-2.416,5.127-5.031,6.522c-1.543,0.825-3.453,2.34-5.24,4.119c-9.578,1.213-18.305,3.461-25.767,6.517
	c0.03-0.689,0.124-1.38,0.299-2.068c0.65-2.542,1.661-5.078,2.981-7.569C109.189,100.323,120.153,97.803,131.632,95.672z
	 M79.993,109.096c1.971,2.193,5.561,7.885,5.786,8.667c-5.722,3.521-10.159,7.646-12.97,12.198
	c-1.138-0.408-9.753-10.064-13.503-12.556C65.711,114.449,72.628,111.673,79.993,109.096z M25.813,138.715
	c1.711-1.591,4.091-2.369,6.373-1.871c0.015,0.003,0.029,0.006,0.043,0.01c3.617,0.808,12.527,0.531,17.422-2.897
	c3.773-2.647,8.806-2.384,12.28,0.627c0.021,0.02,1.571,1.477,2.22,2.726c2.361,4.543,1.174,10.084-3.021,13.028
	c-8.325,5.831-18.315,6.865-24.353,6.874c-6.324-4.368-11.591-8.934-15.741-13.624C22.5,141.937,24.095,140.312,25.813,138.715z
	 M70.692,61.954C111.294,45.873,165.385,37.016,223,37.016c57.615,0,111.706,8.856,152.309,24.938
	C413.879,77.231,436,97.789,436,118.359c0,5.71-1.711,11.418-4.998,17.013C398.342,100.585,316.4,77.583,223,77.583
	c-93.4,0-175.342,23.002-208.002,57.789C11.711,129.777,10,124.069,10,118.359C10,97.789,32.122,77.231,70.692,61.954z
	 M361.554,385.347C324.626,400.589,275.42,408.984,223,408.984s-101.626-8.395-138.553-23.637
	C49.438,370.896,29.36,351.45,29.36,331.993c0-16.347,13.973-32.615,39.435-46.045c8.942,8.915,18.479,16.959,28.511,24.111
	c-4.424,4.877-6.666,10.085-6.666,15.544c0,9.635,7.066,23.465,40.728,34.637c24.548,8.147,57.09,12.633,91.632,12.633
	c34.542,0,67.084-4.486,91.632-12.633c33.662-11.171,40.728-25.001,40.728-34.637c0-5.459-2.242-10.667-6.666-15.544
	c10.031-7.151,19.569-15.195,28.511-24.111c25.462,13.429,39.435,29.698,39.435,46.044
	C416.64,351.45,396.562,370.896,361.554,385.347z"/>
<g>
</g>
<g>
</g>
<g>
</g>
<g>
</g>
<g>
</g>
<g>
</g>
<g>
</g>
<g>
</g>
<g>
</g>
<g>
</g>
<g>
</g>
<g>
</g>
<g>
</g>
<g>
</g>
<g>
</g>
</svg>
